<svg xmlns="http://www.w3.org/2000/svg" xmlns:xlink="http://www.w3.org/1999/xlink" width="500" zoomAndPan="magnify" viewBox="0 0 375 374.999991" height="500" preserveAspectRatio="xMidYMid meet" version="1.0"><defs><g/><clipPath id="9544b34db8"><path d="M 22.238281 22.238281 L 352.761719 22.238281 L 352.761719 352.761719 L 22.238281 352.761719 Z M 22.238281 22.238281 " clip-rule="nonzero"/></clipPath><clipPath id="1c02bfc04d"><path d="M 187.5 22.238281 C 96.230469 22.238281 22.238281 96.230469 22.238281 187.5 C 22.238281 278.769531 96.230469 352.761719 187.5 352.761719 C 278.769531 352.761719 352.761719 278.769531 352.761719 187.5 C 352.761719 96.230469 278.769531 22.238281 187.5 22.238281 Z M 187.5 22.238281 " clip-rule="nonzero"/></clipPath><clipPath id="982b2a4ca9"><path d="M 31.128906 31.128906 L 343.871094 31.128906 L 343.871094 343.871094 L 31.128906 343.871094 Z M 31.128906 31.128906 " clip-rule="nonzero"/></clipPath><clipPath id="fe6c3a07f0"><path d="M 187.5 31.128906 C 101.136719 31.128906 31.128906 101.136719 31.128906 187.5 C 31.128906 273.863281 101.136719 343.871094 187.5 343.871094 C 273.863281 343.871094 343.871094 273.863281 343.871094 187.5 C 343.871094 101.136719 273.863281 31.128906 187.5 31.128906 Z M 187.5 31.128906 " clip-rule="nonzero"/></clipPath><clipPath id="0954e59469"><path d="M 95.835938 95.835938 L 279.164062 95.835938 L 279.164062 279.164062 L 95.835938 279.164062 Z M 95.835938 95.835938 " clip-rule="nonzero"/></clipPath><clipPath id="332fb04d73"><path d="M 187.5 95.835938 C 136.875 95.835938 95.835938 136.875 95.835938 187.5 C 95.835938 238.125 136.875 279.164062 187.5 279.164062 C 238.125 279.164062 279.164062 238.125 279.164062 187.5 C 279.164062 136.875 238.125 95.835938 187.5 95.835938 Z M 187.5 95.835938 " clip-rule="nonzero"/></clipPath><clipPath id="67bda797e4"><path d="M 48.632812 173.464844 L 76.699219 173.464844 L 76.699219 201.535156 L 48.632812 201.535156 Z M 48.632812 173.464844 " clip-rule="nonzero"/></clipPath><clipPath id="6e0f1f5181"><path d="M 62.667969 173.464844 C 54.917969 173.464844 48.632812 179.75 48.632812 187.5 C 48.632812 195.25 54.917969 201.535156 62.667969 201.535156 C 70.417969 201.535156 76.699219 195.25 76.699219 187.5 C 76.699219 179.75 70.417969 173.464844 62.667969 173.464844 Z M 62.667969 173.464844 " clip-rule="nonzero"/></clipPath><clipPath id="313c3a1c1d"><path d="M 298.300781 173.464844 L 326.367188 173.464844 L 326.367188 201.535156 L 298.300781 201.535156 Z M 298.300781 173.464844 " clip-rule="nonzero"/></clipPath><clipPath id="b426d569ab"><path d="M 312.332031 173.464844 C 304.582031 173.464844 298.300781 179.75 298.300781 187.5 C 298.300781 195.25 304.582031 201.535156 312.332031 201.535156 C 320.082031 201.535156 326.367188 195.25 326.367188 187.5 C 326.367188 179.75 320.082031 173.464844 312.332031 173.464844 Z M 312.332031 173.464844 " clip-rule="nonzero"/></clipPath><clipPath id="17ffbd4764"><path d="M 150.035156 231.753906 L 245.113281 231.753906 L 245.113281 253.023438 L 150.035156 253.023438 Z M 150.035156 231.753906 " clip-rule="nonzero"/></clipPath><clipPath id="82a63e1b1f"><path d="M 158.410156 231.753906 C 155.824219 233.058594 154.371094 234.515625 154.371094 236.050781 C 154.371094 241.675781 173.714844 246.234375 197.574219 246.234375 C 221.433594 246.234375 240.777344 241.675781 240.777344 236.050781 C 240.777344 234.515625 239.324219 233.058594 236.738281 231.753906 C 242.015625 233.941406 245.117188 236.589844 245.117188 239.449219 C 245.117188 246.945312 223.828125 253.023438 197.574219 253.023438 C 171.316406 253.023438 150.035156 246.945312 150.035156 239.449219 C 150.035156 236.589844 153.132812 233.941406 158.410156 231.753906 Z M 158.410156 231.753906 " clip-rule="nonzero"/></clipPath><clipPath id="d73f00d80a"><path d="M 158.410156 231.753906 C 155.824219 233.058594 154.371094 234.515625 154.371094 236.050781 C 154.371094 241.675781 173.714844 246.234375 197.574219 246.234375 C 221.433594 246.234375 240.777344 241.675781 240.777344 236.050781 C 240.777344 234.515625 239.324219 233.058594 236.738281 231.753906 C 242.015625 233.941406 245.117188 236.589844 245.117188 239.449219 C 245.117188 246.945312 223.828125 253.023438 197.574219 253.023438 C 171.316406 253.023438 150.035156 246.945312 150.035156 239.449219 C 150.035156 236.589844 153.132812 233.941406 158.410156 231.753906 " clip-rule="nonzero"/></clipPath><linearGradient x1="0.963819" gradientTransform="matrix(0, 135.140637, -135.311063, 0, 197.57385, 101.501068)" y1="0" x2="1.121208" gradientUnits="userSpaceOnUse" y2="0" id="c26c8b6d6e"><stop stop-opacity="1" stop-color="rgb(39.199829%, 23.498535%, 8.599854%)" offset="0"/><stop stop-opacity="1" stop-color="rgb(39.004517%, 23.303223%, 8.599854%)" offset="0.03125"/><stop stop-opacity="1" stop-color="rgb(38.803101%, 23.103333%, 8.599854%)" offset="0.0625"/><stop stop-opacity="1" stop-color="rgb(38.606262%, 22.906494%, 8.406067%)" offset="0.09375"/><stop stop-opacity="1" stop-color="rgb(38.406372%, 22.706604%, 8.206177%)" offset="0.125"/><stop stop-opacity="1" stop-color="rgb(38.302612%, 22.627258%, 8.102417%)" offset="0.140625"/><stop stop-opacity="1" stop-color="rgb(38.1073%, 22.479248%, 7.907104%)" offset="0.15625"/><stop stop-opacity="1" stop-color="rgb(38.002014%, 22.401428%, 7.801819%)" offset="0.1875"/><stop stop-opacity="1" stop-color="rgb(37.901306%, 22.302246%, 7.725525%)" offset="0.21875"/><stop stop-opacity="1" stop-color="rgb(37.702942%, 22.103882%, 7.577515%)" offset="0.25"/><stop stop-opacity="1" stop-color="rgb(37.600708%, 22.000122%, 7.499695%)" offset="0.5"/><stop stop-opacity="1" stop-color="rgb(37.599182%, 21.998596%, 7.499695%)" offset="1"/></linearGradient><clipPath id="859ca80fc8"><path d="M 170.195312 120.875 L 199 120.875 L 199 173.296875 L 170.195312 173.296875 Z M 170.195312 120.875 " clip-rule="nonzero"/></clipPath><clipPath id="f5c03f447b"><path d="M 172.871094 120.875 C 172.140625 122.003906 171.589844 123.261719 171.183594 124.570312 C 170.769531 125.878906 170.519531 127.25 170.40625 128.652344 C 170.195312 131.457031 170.6875 134.398438 171.894531 137.078125 C 172.054688 137.40625 172.203125 137.746094 172.378906 138.070312 L 172.917969 139.03125 C 173.113281 139.34375 173.316406 139.644531 173.523438 139.953125 C 173.726562 140.257812 173.957031 140.539062 174.175781 140.835938 C 175.078125 141.992188 176.09375 143.058594 177.203125 143.988281 C 177.46875 144.234375 177.753906 144.457031 178.042969 144.671875 C 178.324219 144.886719 178.625 145.125 178.890625 145.316406 L 180.503906 146.472656 L 183.726562 148.714844 C 184.800781 149.445312 185.859375 150.171875 186.871094 150.921875 C 187.894531 151.652344 188.867188 152.417969 189.78125 153.195312 C 190.703125 153.972656 191.527344 154.804688 192.273438 155.679688 C 192.652344 156.117188 192.992188 156.578125 193.308594 157.054688 C 193.636719 157.523438 193.929688 158.019531 194.203125 158.535156 C 195.289062 160.59375 195.960938 162.992188 196.425781 165.5 C 196.898438 168.015625 197.152344 170.636719 197.488281 173.296875 C 197.679688 172.65625 197.84375 172.007812 198.007812 171.355469 C 198.152344 170.703125 198.304688 170.050781 198.414062 169.386719 C 198.664062 168.058594 198.808594 166.714844 198.898438 165.351562 C 199.042969 162.632812 198.820312 159.769531 197.84375 156.984375 C 197.59375 156.292969 197.304688 155.609375 196.972656 154.945312 C 196.636719 154.285156 196.253906 153.640625 195.839844 153.03125 C 195.019531 151.796875 194.039062 150.703125 193.03125 149.699219 C 192.015625 148.695312 190.9375 147.804688 189.863281 146.953125 C 188.777344 146.121094 187.679688 145.339844 186.589844 144.578125 L 183.304688 142.375 L 181.660156 141.304688 C 181.386719 141.128906 181.164062 140.960938 180.910156 140.792969 C 180.671875 140.621094 180.414062 140.464844 180.1875 140.277344 C 178.296875 138.867188 176.628906 137.207031 175.382812 135.234375 C 174.125 133.269531 173.273438 131.003906 172.867188 128.558594 C 172.46875 126.109375 172.457031 123.511719 172.871094 120.875 Z M 172.871094 120.875 " clip-rule="nonzero"/></clipPath><clipPath id="7eabd74393"><path d="M 172.871094 120.875 C 172.140625 122.003906 171.589844 123.261719 171.183594 124.570312 C 170.769531 125.878906 170.519531 127.25 170.40625 128.652344 C 170.195312 131.457031 170.6875 134.398438 171.894531 137.078125 C 172.054688 137.40625 172.203125 137.746094 172.378906 138.070312 L 172.917969 139.03125 C 173.113281 139.34375 173.316406 139.644531 173.523438 139.953125 C 173.726562 140.257812 173.957031 140.539062 174.175781 140.835938 C 175.078125 141.992188 176.09375 143.058594 177.203125 143.988281 C 177.46875 144.234375 177.753906 144.457031 178.042969 144.671875 C 178.324219 144.886719 178.625 145.125 178.890625 145.316406 L 180.503906 146.472656 L 183.726562 148.714844 C 184.800781 149.445312 185.859375 150.171875 186.871094 150.921875 C 187.894531 151.652344 188.867188 152.417969 189.78125 153.195312 C 190.703125 153.972656 191.527344 154.804688 192.273438 155.679688 C 192.652344 156.117188 192.992188 156.578125 193.308594 157.054688 C 193.636719 157.523438 193.929688 158.019531 194.203125 158.535156 C 195.289062 160.59375 195.960938 162.992188 196.425781 165.5 C 196.898438 168.015625 197.152344 170.636719 197.488281 173.296875 C 197.679688 172.65625 197.84375 172.007812 198.007812 171.355469 C 198.152344 170.703125 198.304688 170.050781 198.414062 169.386719 C 198.664062 168.058594 198.808594 166.714844 198.898438 165.351562 C 199.042969 162.632812 198.820312 159.769531 197.84375 156.984375 C 197.59375 156.292969 197.304688 155.609375 196.972656 154.945312 C 196.636719 154.285156 196.253906 153.640625 195.839844 153.03125 C 195.019531 151.796875 194.039062 150.703125 193.03125 149.699219 C 192.015625 148.695312 190.9375 147.804688 189.863281 146.953125 C 188.777344 146.121094 187.679688 145.339844 186.589844 144.578125 L 183.304688 142.375 L 181.660156 141.304688 C 181.386719 141.128906 181.164062 140.960938 180.910156 140.792969 C 180.671875 140.621094 180.414062 140.464844 180.1875 140.277344 C 178.296875 138.867188 176.628906 137.207031 175.382812 135.234375 C 174.125 133.269531 173.273438 131.003906 172.867188 128.558594 C 172.46875 126.109375 172.457031 123.511719 172.871094 120.875 " clip-rule="nonzero"/></clipPath><linearGradient x1="0.143374" gradientTransform="matrix(0, 135.140637, -135.311063, 0, 184.64813, 101.501068)" y1="0" x2="0.531274" gradientUnits="userSpaceOnUse" y2="0" id="a5e1eac057"><stop stop-opacity="1" stop-color="rgb(71.798706%, 55.674744%, 37.599182%)" offset="0"/><stop stop-opacity="1" stop-color="rgb(71.791077%, 55.487061%, 37.593079%)" offset="0.015625"/><stop stop-opacity="1" stop-color="rgb(71.591187%, 55.284119%, 37.442017%)" offset="0.03125"/><stop stop-opacity="1" stop-color="rgb(71.388245%, 55.084229%, 37.287903%)" offset="0.046875"/><stop stop-opacity="1" stop-color="rgb(71.188354%, 54.893494%, 37.088013%)" offset="0.0625"/><stop stop-opacity="1" stop-color="rgb(70.999146%, 54.782104%, 36.898804%)" offset="0.0703125"/><stop stop-opacity="1" stop-color="rgb(70.985413%, 54.574585%, 36.885071%)" offset="0.078125"/><stop stop-opacity="1" stop-color="rgb(70.875549%, 54.374695%, 36.775208%)" offset="0.0859375"/><stop stop-opacity="1" stop-color="rgb(70.678711%, 54.187012%, 36.587524%)" offset="0.09375"/><stop stop-opacity="1" stop-color="rgb(70.39032%, 54.081726%, 36.482239%)" offset="0.109375"/><stop stop-opacity="1" stop-color="rgb(70.187378%, 53.881836%, 36.271667%)" offset="0.125"/><stop stop-opacity="1" stop-color="rgb(70.079041%, 53.69873%, 35.978699%)" offset="0.132812"/><stop stop-opacity="1" stop-color="rgb(69.882202%, 53.691101%, 35.78949%)" offset="0.140625"/><stop stop-opacity="1" stop-color="rgb(69.67926%, 53.579712%, 35.699463%)" offset="0.148438"/><stop stop-opacity="1" stop-color="rgb(69.487%, 53.372192%, 35.684204%)" offset="0.15625"/><stop stop-opacity="1" stop-color="rgb(69.387817%, 53.083801%, 35.484314%)" offset="0.171875"/><stop stop-opacity="1" stop-color="rgb(69.187927%, 52.893066%, 35.293579%)" offset="0.1875"/><stop stop-opacity="1" stop-color="rgb(68.998718%, 52.783203%, 35.183716%)" offset="0.195312"/><stop stop-opacity="1" stop-color="rgb(68.984985%, 52.578735%, 34.989929%)" offset="0.203125"/><stop stop-opacity="1" stop-color="rgb(68.777466%, 52.339172%, 34.890747%)" offset="0.21875"/><stop stop-opacity="1" stop-color="rgb(68.389893%, 52.182007%, 34.689331%)" offset="0.234375"/><stop stop-opacity="1" stop-color="rgb(68.186951%, 51.982117%, 34.487915%)" offset="0.25"/><stop stop-opacity="1" stop-color="rgb(67.987061%, 51.791382%, 34.288025%)" offset="0.265625"/><stop stop-opacity="1" stop-color="rgb(67.799377%, 51.681519%, 34.098816%)" offset="0.273437"/><stop stop-opacity="1" stop-color="rgb(67.788696%, 51.473999%, 34.085083%)" offset="0.28125"/><stop stop-opacity="1" stop-color="rgb(67.628479%, 51.184082%, 33.876038%)" offset="0.296875"/><stop stop-opacity="1" stop-color="rgb(67.289734%, 50.993347%, 33.48999%)" offset="0.3125"/><stop stop-opacity="1" stop-color="rgb(67.086792%, 50.793457%, 33.287048%)" offset="0.328125"/><stop stop-opacity="1" stop-color="rgb(66.976929%, 50.59967%, 33.177185%)" offset="0.335937"/><stop stop-opacity="1" stop-color="rgb(66.78009%, 50.590515%, 32.989502%)" offset="0.34375"/><stop stop-opacity="1" stop-color="rgb(66.578674%, 50.4776%, 32.899475%)" offset="0.351562"/><stop stop-opacity="1" stop-color="rgb(66.386414%, 50.270081%, 32.88269%)" offset="0.359375"/><stop stop-opacity="1" stop-color="rgb(66.288757%, 49.983215%, 32.6828%)" offset="0.375"/><stop stop-opacity="1" stop-color="rgb(66.088867%, 49.79248%, 32.493591%)" offset="0.390625"/><stop stop-opacity="1" stop-color="rgb(65.885925%, 49.59259%, 32.344055%)" offset="0.40625"/><stop stop-opacity="1" stop-color="rgb(65.67688%, 49.389648%, 32.189941%)" offset="0.421875"/><stop stop-opacity="1" stop-color="rgb(65.289307%, 49.185181%, 31.990051%)" offset="0.4375"/><stop stop-opacity="1" stop-color="rgb(65.086365%, 48.794556%, 31.787109%)" offset="0.453125"/><stop stop-opacity="1" stop-color="rgb(64.978027%, 48.599243%, 31.677246%)" offset="0.460937"/><stop stop-opacity="1" stop-color="rgb(64.788818%, 48.591614%, 31.480408%)" offset="0.46875"/><stop stop-opacity="1" stop-color="rgb(64.683533%, 48.391724%, 31.190491%)" offset="0.484375"/><stop stop-opacity="1" stop-color="rgb(64.472961%, 48.188782%, 30.989075%)" offset="0.5"/><stop stop-opacity="1" stop-color="rgb(64.08844%, 47.984314%, 30.789185%)" offset="0.515625"/><stop stop-opacity="1" stop-color="rgb(63.885498%, 47.644043%, 30.586243%)" offset="0.53125"/><stop stop-opacity="1" stop-color="rgb(63.676453%, 47.489929%, 30.384827%)" offset="0.546875"/><stop stop-opacity="1" stop-color="rgb(63.290405%, 47.290039%, 30.194092%)" offset="0.5625"/><stop stop-opacity="1" stop-color="rgb(63.09967%, 47.099304%, 30.085754%)" offset="0.570312"/><stop stop-opacity="1" stop-color="rgb(63.087463%, 47.087097%, 29.890442%)" offset="0.578125"/><stop stop-opacity="1" stop-color="rgb(62.9776%, 46.97876%, 29.798889%)" offset="0.585937"/><stop stop-opacity="1" stop-color="rgb(62.789917%, 46.781921%, 29.79126%)" offset="0.59375"/><stop stop-opacity="1" stop-color="rgb(62.687683%, 46.492004%, 29.59137%)" offset="0.609375"/><stop stop-opacity="1" stop-color="rgb(62.527466%, 46.289062%, 29.388428%)" offset="0.625"/><stop stop-opacity="1" stop-color="rgb(62.188721%, 46.089172%, 29.18396%)" offset="0.640625"/><stop stop-opacity="1" stop-color="rgb(61.985779%, 45.88623%, 28.793335%)" offset="0.65625"/><stop stop-opacity="1" stop-color="rgb(61.778259%, 45.677185%, 28.590393%)" offset="0.671875"/><stop stop-opacity="1" stop-color="rgb(61.390686%, 45.289612%, 28.390503%)" offset="0.6875"/><stop stop-opacity="1" stop-color="rgb(61.187744%, 45.08667%, 28.187561%)" offset="0.703125"/><stop stop-opacity="1" stop-color="rgb(60.987854%, 44.880676%, 27.987671%)" offset="0.71875"/><stop stop-opacity="1" stop-color="rgb(60.784912%, 44.491577%, 27.787781%)" offset="0.734375"/><stop stop-opacity="1" stop-color="rgb(60.575867%, 44.288635%, 27.638245%)" offset="0.75"/><stop stop-opacity="1" stop-color="rgb(60.189819%, 44.088745%, 27.493286%)" offset="0.765625"/><stop stop-opacity="1" stop-color="rgb(59.986877%, 43.885803%, 27.293396%)" offset="0.78125"/><stop stop-opacity="1" stop-color="rgb(59.786987%, 43.678284%, 27.090454%)" offset="0.796875"/><stop stop-opacity="1" stop-color="rgb(59.596252%, 43.29071%, 26.887512%)" offset="0.8125"/><stop stop-opacity="1" stop-color="rgb(59.487915%, 43.099976%, 26.58844%)" offset="0.820313"/><stop stop-opacity="1" stop-color="rgb(59.280396%, 43.087769%, 26.391602%)" offset="0.828125"/><stop stop-opacity="1" stop-color="rgb(58.987427%, 42.887878%, 26.292419%)" offset="0.84375"/><stop stop-opacity="1" stop-color="rgb(58.784485%, 42.687988%, 26.092529%)" offset="0.859375"/><stop stop-opacity="1" stop-color="rgb(58.575439%, 42.529297%, 25.889587%)" offset="0.875"/><stop stop-opacity="1" stop-color="rgb(58.189392%, 42.190552%, 25.689697%)" offset="0.890625"/><stop stop-opacity="1" stop-color="rgb(57.98645%, 41.98761%, 25.486755%)" offset="0.90625"/><stop stop-opacity="1" stop-color="rgb(57.783508%, 41.784668%, 25.283813%)" offset="0.9375"/><stop stop-opacity="1" stop-color="rgb(57.516479%, 41.488647%, 24.989319%)" offset="0.945313"/><stop stop-opacity="1" stop-color="rgb(57.357788%, 41.281128%, 24.79248%)" offset="0.953125"/><stop stop-opacity="1" stop-color="rgb(57.087708%, 40.988159%, 24.693298%)" offset="0.96875"/><stop stop-opacity="1" stop-color="rgb(56.898499%, 40.79895%, 24.581909%)" offset="0.976563"/><stop stop-opacity="1" stop-color="rgb(56.884766%, 40.785217%, 24.37439%)" offset="0.984375"/><stop stop-opacity="1" stop-color="rgb(56.684875%, 40.585327%, 24.085999%)" offset="1"/></linearGradient><clipPath id="2dbe09dac9"><path d="M 178.566406 104.902344 L 203.941406 104.902344 L 203.941406 159.578125 L 178.566406 159.578125 Z M 178.566406 104.902344 " clip-rule="nonzero"/></clipPath><clipPath id="d01878273e"><path d="M 182.148438 104.902344 C 181.304688 105.949219 180.628906 107.144531 180.089844 108.402344 C 179.542969 109.660156 179.148438 111 178.894531 112.382812 C 178.394531 115.148438 178.578125 118.125 179.503906 120.914062 C 179.628906 121.261719 179.742188 121.613281 179.882812 121.953125 L 180.316406 122.964844 C 180.480469 123.292969 180.652344 123.621094 180.824219 123.945312 C 180.996094 124.269531 181.199219 124.574219 181.382812 124.890625 C 182.160156 126.128906 183.0625 127.296875 184.070312 128.335938 C 184.308594 128.609375 184.570312 128.855469 184.832031 129.101562 C 185.09375 129.34375 185.367188 129.609375 185.613281 129.828125 L 187.097656 131.148438 L 190.070312 133.710938 C 191.0625 134.546875 192.039062 135.382812 192.96875 136.230469 C 193.914062 137.0625 194.804688 137.921875 195.632812 138.792969 C 196.464844 139.660156 197.203125 140.574219 197.855469 141.519531 C 198.183594 141.992188 198.472656 142.484375 198.742188 142.992188 C 199.019531 143.496094 199.257812 144.019531 199.472656 144.558594 C 200.347656 146.71875 200.761719 149.171875 200.96875 151.714844 C 201.179688 154.269531 201.164062 156.902344 201.21875 159.578125 C 201.476562 158.960938 201.707031 158.332031 201.9375 157.703125 C 202.148438 157.070312 202.367188 156.429688 202.542969 155.785156 C 202.929688 154.492188 203.214844 153.171875 203.441406 151.824219 C 203.867188 149.128906 203.941406 146.261719 203.257812 143.390625 C 203.082031 142.675781 202.867188 141.96875 202.601562 141.273438 C 202.339844 140.578125 202.023438 139.902344 201.671875 139.25 C 200.984375 137.941406 200.121094 136.75 199.222656 135.648438 C 198.316406 134.542969 197.335938 133.546875 196.355469 132.59375 C 195.359375 131.648438 194.355469 130.761719 193.347656 129.890625 L 190.304688 127.359375 L 188.777344 126.128906 C 188.527344 125.917969 188.320312 125.734375 188.089844 125.542969 C 187.867188 125.34375 187.628906 125.160156 187.421875 124.953125 C 185.6875 123.359375 184.199219 121.53125 183.164062 119.441406 C 182.113281 117.359375 181.503906 115.019531 181.351562 112.539062 C 181.207031 110.066406 181.460938 107.484375 182.148438 104.902344 Z M 182.148438 104.902344 " clip-rule="nonzero"/></clipPath><clipPath id="5b2dff6b79"><path d="M 182.148438 104.902344 C 181.304688 105.949219 180.628906 107.144531 180.089844 108.402344 C 179.542969 109.660156 179.148438 111 178.894531 112.382812 C 178.394531 115.148438 178.578125 118.125 179.503906 120.914062 C 179.628906 121.261719 179.742188 121.613281 179.882812 121.953125 L 180.316406 122.964844 C 180.480469 123.292969 180.652344 123.621094 180.824219 123.945312 C 180.996094 124.269531 181.199219 124.574219 181.382812 124.890625 C 182.160156 126.128906 183.0625 127.296875 184.070312 128.335938 C 184.308594 128.609375 184.570312 128.855469 184.832031 129.101562 C 185.09375 129.34375 185.367188 129.609375 185.613281 129.828125 L 187.097656 131.148438 L 190.070312 133.710938 C 191.0625 134.546875 192.039062 135.382812 192.96875 136.230469 C 193.914062 137.0625 194.804688 137.921875 195.632812 138.792969 C 196.464844 139.660156 197.203125 140.574219 197.855469 141.519531 C 198.183594 141.992188 198.472656 142.484375 198.742188 142.992188 C 199.019531 143.496094 199.257812 144.019531 199.472656 144.558594 C 200.347656 146.71875 200.761719 149.171875 200.96875 151.714844 C 201.179688 154.269531 201.164062 156.902344 201.21875 159.578125 C 201.476562 158.960938 201.707031 158.332031 201.9375 157.703125 C 202.148438 157.070312 202.367188 156.429688 202.542969 155.785156 C 202.929688 154.492188 203.214844 153.171875 203.441406 151.824219 C 203.867188 149.128906 203.941406 146.261719 203.257812 143.390625 C 203.082031 142.675781 202.867188 141.96875 202.601562 141.273438 C 202.339844 140.578125 202.023438 139.902344 201.671875 139.25 C 200.984375 137.941406 200.121094 136.75 199.222656 135.648438 C 198.316406 134.542969 197.335938 133.546875 196.355469 132.59375 C 195.359375 131.648438 194.355469 130.761719 193.347656 129.890625 L 190.304688 127.359375 L 188.777344 126.128906 C 188.527344 125.917969 188.320312 125.734375 188.089844 125.542969 C 187.867188 125.34375 187.628906 125.160156 187.421875 124.953125 C 185.6875 123.359375 184.199219 121.53125 183.164062 119.441406 C 182.113281 117.359375 181.503906 115.019531 181.351562 112.539062 C 181.207031 110.066406 181.460938 107.484375 182.148438 104.902344 " clip-rule="nonzero"/></clipPath><linearGradient x1="0.025162" gradientTransform="matrix(0, 135.140637, -135.311063, 0, 191.19495, 101.501068)" y1="0" x2="0.429763" gradientUnits="userSpaceOnUse" y2="0" id="99d2f5aa8e"><stop stop-opacity="1" stop-color="rgb(76.499939%, 59.999084%, 41.989136%)" offset="0"/><stop stop-opacity="1" stop-color="rgb(76.498413%, 59.999084%, 41.793823%)" offset="0.015625"/><stop stop-opacity="1" stop-color="rgb(76.394653%, 59.999084%, 41.598511%)" offset="0.0234375"/><stop stop-opacity="1" stop-color="rgb(76.194763%, 59.991455%, 41.590881%)" offset="0.03125"/><stop stop-opacity="1" stop-color="rgb(76.095581%, 59.788513%, 41.390991%)" offset="0.046875"/><stop stop-opacity="1" stop-color="rgb(75.898743%, 59.397888%, 41.19873%)" offset="0.0625"/><stop stop-opacity="1" stop-color="rgb(75.700378%, 59.20105%, 41.096497%)" offset="0.0703125"/><stop stop-opacity="1" stop-color="rgb(75.692749%, 59.19342%, 40.896606%)" offset="0.078125"/><stop stop-opacity="1" stop-color="rgb(75.492859%, 58.992004%, 40.797424%)" offset="0.09375"/><stop stop-opacity="1" stop-color="rgb(75.193787%, 58.692932%, 40.693665%)" offset="0.101562"/><stop stop-opacity="1" stop-color="rgb(74.993896%, 58.494568%, 40.486145%)" offset="0.109375"/><stop stop-opacity="1" stop-color="rgb(74.894714%, 58.395386%, 40.190125%)" offset="0.125"/><stop stop-opacity="1" stop-color="rgb(74.69635%, 58.197021%, 39.99939%)" offset="0.140625"/><stop stop-opacity="1" stop-color="rgb(74.397278%, 57.897949%, 39.89563%)" offset="0.148437"/><stop stop-opacity="1" stop-color="rgb(74.195862%, 57.696533%, 39.69574%)" offset="0.15625"/><stop stop-opacity="1" stop-color="rgb(74.098206%, 57.597351%, 39.598083%)" offset="0.171875"/><stop stop-opacity="1" stop-color="rgb(73.901367%, 57.450867%, 39.401245%)" offset="0.1875"/><stop stop-opacity="1" stop-color="rgb(73.602295%, 57.301331%, 39.202881%)" offset="0.195312"/><stop stop-opacity="1" stop-color="rgb(73.397827%, 57.295227%, 39.195251%)" offset="0.203125"/><stop stop-opacity="1" stop-color="rgb(73.298645%, 57.095337%, 38.995361%)" offset="0.21875"/><stop stop-opacity="1" stop-color="rgb(73.194885%, 56.796265%, 38.696289%)" offset="0.226562"/><stop stop-opacity="1" stop-color="rgb(72.988892%, 56.594849%, 38.494873%)" offset="0.234375"/><stop stop-opacity="1" stop-color="rgb(72.691345%, 56.497192%, 38.397217%)" offset="0.25"/><stop stop-opacity="1" stop-color="rgb(72.499084%, 56.300354%, 38.200378%)" offset="0.265625"/><stop stop-opacity="1" stop-color="rgb(72.422791%, 56.001282%, 38.002014%)" offset="0.273437"/><stop stop-opacity="1" stop-color="rgb(72.273254%, 55.79834%, 37.994385%)" offset="0.28125"/><stop stop-opacity="1" stop-color="rgb(72.003174%, 55.503845%, 37.794495%)" offset="0.3125"/><stop stop-opacity="1" stop-color="rgb(71.705627%, 55.303955%, 37.524414%)" offset="0.320312"/><stop stop-opacity="1" stop-color="rgb(71.499634%, 55.296326%, 37.374878%)" offset="0.328125"/><stop stop-opacity="1" stop-color="rgb(71.398926%, 55.099487%, 37.298584%)" offset="0.34375"/><stop stop-opacity="1" stop-color="rgb(71.296692%, 54.800415%, 37.19635%)" offset="0.351562"/><stop stop-opacity="1" stop-color="rgb(71.092224%, 54.597473%, 36.991882%)" offset="0.359375"/><stop stop-opacity="1" stop-color="rgb(70.793152%, 54.498291%, 36.69281%)" offset="0.375"/><stop stop-opacity="1" stop-color="rgb(70.599365%, 54.302979%, 36.499023%)" offset="0.390625"/><stop stop-opacity="1" stop-color="rgb(70.500183%, 54.003906%, 36.399841%)" offset="0.398438"/><stop stop-opacity="1" stop-color="rgb(70.297241%, 53.799438%, 36.199951%)" offset="0.40625"/><stop stop-opacity="1" stop-color="rgb(69.998169%, 53.69873%, 36.099243%)" offset="0.421875"/><stop stop-opacity="1" stop-color="rgb(69.801331%, 53.504944%, 35.905457%)" offset="0.4375"/><stop stop-opacity="1" stop-color="rgb(69.702148%, 53.208923%, 35.705566%)" offset="0.445312"/><stop stop-opacity="1" stop-color="rgb(69.500732%, 53.001404%, 35.697937%)" offset="0.453125"/><stop stop-opacity="1" stop-color="rgb(69.20166%, 52.89917%, 35.502625%)" offset="0.46875"/><stop stop-opacity="1" stop-color="rgb(69.00177%, 52.798462%, 35.203552%)" offset="0.476563"/><stop stop-opacity="1" stop-color="rgb(68.994141%, 52.598572%, 34.999084%)" offset="0.484375"/><stop stop-opacity="1" stop-color="rgb(68.795776%, 52.49939%, 34.899902%)" offset="0.5"/><stop stop-opacity="1" stop-color="rgb(68.406677%, 52.352905%, 34.70459%)" offset="0.515625"/><stop stop-opacity="1" stop-color="rgb(68.205261%, 52.105713%, 34.5047%)" offset="0.523438"/><stop stop-opacity="1" stop-color="rgb(68.197632%, 51.901245%, 34.49707%)" offset="0.53125"/><stop stop-opacity="1" stop-color="rgb(68.000793%, 51.799011%, 34.300232%)" offset="0.546875"/><stop stop-opacity="1" stop-color="rgb(67.802429%, 51.60675%, 34.101868%)" offset="0.5625"/><stop stop-opacity="1" stop-color="rgb(67.727661%, 51.312256%, 34.002686%)" offset="0.570312"/><stop stop-opacity="1" stop-color="rgb(67.578125%, 51.104736%, 33.804321%)" offset="0.578125"/><stop stop-opacity="1" stop-color="rgb(67.304993%, 50.999451%, 33.505249%)" offset="0.59375"/><stop stop-opacity="1" stop-color="rgb(67.103577%, 50.900269%, 33.303833%)" offset="0.601562"/><stop stop-opacity="1" stop-color="rgb(67.095947%, 50.700378%, 33.296204%)" offset="0.609375"/><stop stop-opacity="1" stop-color="rgb(66.899109%, 50.59967%, 33.099365%)" offset="0.625"/><stop stop-opacity="1" stop-color="rgb(66.51001%, 50.40741%, 32.901001%)" offset="0.640625"/><stop stop-opacity="1" stop-color="rgb(66.307068%, 50.111389%, 32.803345%)" offset="0.648437"/><stop stop-opacity="1" stop-color="rgb(66.299438%, 49.902344%, 32.603455%)" offset="0.65625"/><stop stop-opacity="1" stop-color="rgb(66.104126%, 49.798584%, 32.499695%)" offset="0.671875"/><stop stop-opacity="1" stop-color="rgb(65.713501%, 49.607849%, 32.356262%)" offset="0.6875"/><stop stop-opacity="1" stop-color="rgb(65.509033%, 49.31488%, 32.112122%)" offset="0.695312"/><stop stop-opacity="1" stop-color="rgb(65.499878%, 49.107361%, 31.907654%)" offset="0.703125"/><stop stop-opacity="1" stop-color="rgb(65.306091%, 49.000549%, 31.800842%)" offset="0.71875"/><stop stop-opacity="1" stop-color="rgb(65.010071%, 48.902893%, 31.70166%)" offset="0.726562"/><stop stop-opacity="1" stop-color="rgb(64.802551%, 48.701477%, 31.50177%)" offset="0.734375"/><stop stop-opacity="1" stop-color="rgb(64.698792%, 48.402405%, 31.399536%)" offset="0.75"/><stop stop-opacity="1" stop-color="rgb(64.508057%, 48.202515%, 31.208801%)" offset="0.765625"/><stop stop-opacity="1" stop-color="rgb(64.308167%, 48.104858%, 31.008911%)" offset="0.773438"/><stop stop-opacity="1" stop-color="rgb(64.299011%, 47.906494%, 30.999756%)" offset="0.78125"/><stop stop-opacity="1" stop-color="rgb(64.105225%, 47.801208%, 30.805969%)" offset="0.796875"/><stop stop-opacity="1" stop-color="rgb(63.716125%, 47.657776%, 30.41687%)" offset="0.8125"/><stop stop-opacity="1" stop-color="rgb(63.510132%, 47.415161%, 30.209351%)" offset="0.820312"/><stop stop-opacity="1" stop-color="rgb(63.499451%, 47.210693%, 30.198669%)" offset="0.828125"/><stop stop-opacity="1" stop-color="rgb(63.30719%, 47.102356%, 30.006409%)" offset="0.84375"/><stop stop-opacity="1" stop-color="rgb(63.012695%, 47.003174%, 29.806519%)" offset="0.851562"/><stop stop-opacity="1" stop-color="rgb(62.805176%, 46.80481%, 29.798889%)" offset="0.859375"/><stop stop-opacity="1" stop-color="rgb(62.69989%, 46.505737%, 29.605103%)" offset="0.875"/><stop stop-opacity="1" stop-color="rgb(62.556458%, 46.304321%, 29.405212%)" offset="0.890625"/><stop stop-opacity="1" stop-color="rgb(62.313843%, 46.206665%, 29.30603%)" offset="0.898438"/><stop stop-opacity="1" stop-color="rgb(62.109375%, 46.009827%, 29.109192%)" offset="0.90625"/><stop stop-opacity="1" stop-color="rgb(62.002563%, 45.710754%, 28.81012%)" offset="0.921875"/><stop stop-opacity="1" stop-color="rgb(61.811829%, 45.506287%, 28.607178%)" offset="0.9375"/><stop stop-opacity="1" stop-color="rgb(61.520386%, 45.40863%, 28.507996%)" offset="0.945313"/><stop stop-opacity="1" stop-color="rgb(61.314392%, 45.213318%, 28.314209%)" offset="0.953125"/><stop stop-opacity="1" stop-color="rgb(61.204529%, 45.103455%, 28.204346%)" offset="0.96875"/><stop stop-opacity="1" stop-color="rgb(61.105347%, 45.005798%, 28.105164%)" offset="0.976563"/><stop stop-opacity="1" stop-color="rgb(60.908508%, 44.80896%, 27.908325%)" offset="0.984375"/><stop stop-opacity="1" stop-color="rgb(60.609436%, 44.509888%, 27.801514%)" offset="1"/></linearGradient><clipPath id="eea7fbf5dc"><path d="M 138.613281 177.539062 L 240.082031 177.539062 L 240.082031 239.65625 L 138.613281 239.65625 Z M 138.613281 177.539062 " clip-rule="nonzero"/></clipPath><clipPath id="1d8b7624f9"><path d="M 147.878906 201.894531 C 149.480469 199.273438 152.910156 198.28125 156.488281 199.054688 C 157.464844 203.835938 159.078125 209.4375 161.738281 214.976562 C 159.089844 215.925781 155.609375 215.523438 152.496094 213.625 C 147.753906 210.730469 145.6875 205.480469 147.878906 201.894531 Z M 158.382812 187.179688 C 158.382812 182.957031 175.929688 179.53125 197.574219 179.53125 C 219.21875 179.53125 236.765625 182.957031 236.765625 187.179688 C 236.765625 191.402344 219.21875 194.828125 197.574219 194.828125 C 175.929688 194.828125 158.382812 191.402344 158.382812 187.179688 Z M 209.066406 235.980469 C 209.066406 235.980469 222.835938 228.527344 226.453125 204.867188 C 227.152344 200.289062 230.21875 196.4375 234.496094 194.660156 C 234.523438 194.648438 234.554688 194.636719 234.582031 194.625 C 234.582031 194.625 232.09375 224.578125 209.066406 235.980469 Z M 149.132812 217.351562 C 154.300781 220.503906 160.023438 221.449219 164.710938 220.363281 C 166.628906 223.417969 168.921875 226.363281 171.671875 229.027344 C 186.003906 242.917969 209.148438 242.917969 223.476562 229.027344 C 223.621094 228.890625 223.765625 228.746094 223.90625 228.605469 C 224.480469 228.035156 225.042969 227.445312 225.582031 226.84375 C 226.117188 226.246094 226.636719 225.636719 227.136719 225.015625 C 227.632812 224.398438 228.113281 223.769531 228.578125 223.128906 C 229.039062 222.5 229.480469 221.855469 229.910156 221.203125 C 230.332031 220.558594 230.738281 219.90625 231.132812 219.242188 C 231.519531 218.589844 231.898438 217.921875 232.257812 217.253906 C 232.613281 216.589844 232.953125 215.921875 233.28125 215.246094 C 233.605469 214.582031 233.914062 213.910156 234.214844 213.234375 C 234.511719 212.566406 234.792969 211.902344 235.0625 211.222656 C 235.324219 210.5625 235.578125 209.894531 235.820312 209.230469 C 236.058594 208.570312 236.285156 207.914062 236.5 207.25 C 236.710938 206.605469 236.914062 205.957031 237.109375 205.304688 C 237.296875 204.671875 237.472656 204.039062 237.640625 203.398438 C 237.808594 202.78125 237.964844 202.167969 238.113281 201.546875 C 238.253906 200.949219 238.390625 200.347656 238.519531 199.746094 C 238.640625 199.175781 238.757812 198.597656 238.867188 198.023438 C 238.972656 197.472656 239.070312 196.921875 239.164062 196.371094 C 239.25 195.851562 239.332031 195.332031 239.410156 194.808594 C 239.480469 194.324219 239.550781 193.832031 239.613281 193.34375 C 239.667969 192.890625 239.722656 192.4375 239.773438 191.984375 C 239.820312 191.574219 239.863281 191.15625 239.902344 190.746094 C 239.9375 190.375 239.96875 190 240 189.628906 C 240.035156 189.125 240.070312 188.613281 240.078125 188.109375 C 240.082031 187.832031 240.058594 187.554688 240.054688 187.273438 C 240.050781 187.019531 240.042969 186.789062 239.964844 186.542969 C 239.863281 186.230469 239.707031 185.933594 239.511719 185.667969 C 239.289062 185.351562 239.015625 185.070312 238.726562 184.816406 C 238.378906 184.511719 238.007812 184.238281 237.621094 183.992188 C 237.167969 183.703125 236.695312 183.441406 236.214844 183.203125 C 235.660156 182.929688 235.09375 182.679688 234.519531 182.449219 C 233.871094 182.191406 233.21875 181.957031 232.550781 181.734375 C 231.820312 181.492188 231.078125 181.273438 230.332031 181.066406 C 229.515625 180.84375 228.695312 180.632812 227.871094 180.445312 C 226.980469 180.234375 226.082031 180.046875 225.1875 179.871094 C 224.222656 179.683594 223.257812 179.511719 222.289062 179.355469 C 215.324219 178.214844 206.796875 177.539062 197.574219 177.539062 C 188.355469 177.539062 179.824219 178.214844 172.859375 179.355469 C 172.710938 179.375 172.5625 179.402344 172.410156 179.429688 C 170.761719 179.707031 169.113281 180.023438 167.484375 180.398438 C 166.058594 180.722656 164.648438 181.089844 163.253906 181.527344 C 162.085938 181.890625 160.929688 182.300781 159.8125 182.792969 C 158.921875 183.1875 158.046875 183.628906 157.242188 184.183594 C 156.640625 184.59375 156.0625 185.074219 155.632812 185.671875 C 155.242188 186.21875 155.109375 186.890625 155.09375 187.554688 C 155.070312 188.335938 155.113281 189.117188 155.171875 189.894531 C 149.015625 188.984375 143.289062 190.914062 140.511719 195.453125 C 136.421875 202.144531 140.28125 211.949219 149.132812 217.351562 Z M 149.132812 217.351562 " clip-rule="nonzero"/></clipPath><clipPath id="95c1b3e1f9"><path d="M 147.878906 201.894531 C 149.480469 199.273438 152.910156 198.28125 156.488281 199.054688 C 157.464844 203.835938 159.078125 209.4375 161.738281 214.976562 C 159.089844 215.925781 155.609375 215.523438 152.496094 213.625 C 147.753906 210.730469 145.6875 205.480469 147.878906 201.894531 Z M 158.382812 187.179688 C 158.382812 182.957031 175.929688 179.53125 197.574219 179.53125 C 219.21875 179.53125 236.765625 182.957031 236.765625 187.179688 C 236.765625 191.402344 219.21875 194.828125 197.574219 194.828125 C 175.929688 194.828125 158.382812 191.402344 158.382812 187.179688 Z M 209.066406 235.980469 C 209.066406 235.980469 222.835938 228.527344 226.453125 204.867188 C 227.152344 200.289062 230.21875 196.4375 234.496094 194.660156 C 234.523438 194.648438 234.554688 194.636719 234.582031 194.625 C 234.582031 194.625 232.09375 224.578125 209.066406 235.980469 Z M 149.132812 217.351562 C 154.300781 220.503906 160.023438 221.449219 164.710938 220.363281 C 166.628906 223.417969 168.921875 226.363281 171.671875 229.027344 C 186.003906 242.917969 209.148438 242.917969 223.476562 229.027344 C 223.621094 228.890625 223.765625 228.746094 223.90625 228.605469 C 224.480469 228.035156 225.042969 227.445312 225.582031 226.84375 C 226.117188 226.246094 226.636719 225.636719 227.136719 225.015625 C 227.632812 224.398438 228.113281 223.769531 228.578125 223.128906 C 229.039062 222.5 229.480469 221.855469 229.910156 221.203125 C 230.332031 220.558594 230.738281 219.90625 231.132812 219.242188 C 231.519531 218.589844 231.898438 217.921875 232.257812 217.253906 C 232.613281 216.589844 232.953125 215.921875 233.28125 215.246094 C 233.605469 214.582031 233.914062 213.910156 234.214844 213.234375 C 234.511719 212.566406 234.792969 211.902344 235.0625 211.222656 C 235.324219 210.5625 235.578125 209.894531 235.820312 209.230469 C 236.058594 208.570312 236.285156 207.914062 236.5 207.25 C 236.710938 206.605469 236.914062 205.957031 237.109375 205.304688 C 237.296875 204.671875 237.472656 204.039062 237.640625 203.398438 C 237.808594 202.78125 237.964844 202.167969 238.113281 201.546875 C 238.253906 200.949219 238.390625 200.347656 238.519531 199.746094 C 238.640625 199.175781 238.757812 198.597656 238.867188 198.023438 C 238.972656 197.472656 239.070312 196.921875 239.164062 196.371094 C 239.25 195.851562 239.332031 195.332031 239.410156 194.808594 C 239.480469 194.324219 239.550781 193.832031 239.613281 193.34375 C 239.667969 192.890625 239.722656 192.4375 239.773438 191.984375 C 239.820312 191.574219 239.863281 191.15625 239.902344 190.746094 C 239.9375 190.375 239.96875 190 240 189.628906 C 240.035156 189.125 240.070312 188.613281 240.078125 188.109375 C 240.082031 187.832031 240.058594 187.554688 240.054688 187.273438 C 240.050781 187.019531 240.042969 186.789062 239.964844 186.542969 C 239.863281 186.230469 239.707031 185.933594 239.511719 185.667969 C 239.289062 185.351562 239.015625 185.070312 238.726562 184.816406 C 238.378906 184.511719 238.007812 184.238281 237.621094 183.992188 C 237.167969 183.703125 236.695312 183.441406 236.214844 183.203125 C 235.660156 182.929688 235.09375 182.679688 234.519531 182.449219 C 233.871094 182.191406 233.21875 181.957031 232.550781 181.734375 C 231.820312 181.492188 231.078125 181.273438 230.332031 181.066406 C 229.515625 180.84375 228.695312 180.632812 227.871094 180.445312 C 226.980469 180.234375 226.082031 180.046875 225.1875 179.871094 C 224.222656 179.683594 223.257812 179.511719 222.289062 179.355469 C 215.324219 178.214844 206.796875 177.539062 197.574219 177.539062 C 188.355469 177.539062 179.824219 178.214844 172.859375 179.355469 C 172.710938 179.375 172.5625 179.402344 172.410156 179.429688 C 170.761719 179.707031 169.113281 180.023438 167.484375 180.398438 C 166.058594 180.722656 164.648438 181.089844 163.253906 181.527344 C 162.085938 181.890625 160.929688 182.300781 159.8125 182.792969 C 158.921875 183.1875 158.046875 183.628906 157.242188 184.183594 C 156.640625 184.59375 156.0625 185.074219 155.632812 185.671875 C 155.242188 186.21875 155.109375 186.890625 155.09375 187.554688 C 155.070312 188.335938 155.113281 189.117188 155.171875 189.894531 C 149.015625 188.984375 143.289062 190.914062 140.511719 195.453125 C 136.421875 202.144531 140.28125 211.949219 149.132812 217.351562 " clip-rule="nonzero"/></clipPath><linearGradient x1="0.562669" gradientTransform="matrix(0, 135.140637, -135.311063, 0, 189.47757, 101.501068)" y1="0" x2="1.022304" gradientUnits="userSpaceOnUse" y2="0" id="87b1dc2ca4"><stop stop-opacity="1" stop-color="rgb(55.299377%, 39.199829%, 22.698975%)" offset="0"/><stop stop-opacity="1" stop-color="rgb(55.122375%, 39.021301%, 22.698975%)" offset="0.015625"/><stop stop-opacity="1" stop-color="rgb(54.847717%, 38.821411%, 22.642517%)" offset="0.0234375"/><stop stop-opacity="1" stop-color="rgb(54.650879%, 38.798523%, 22.512817%)" offset="0.03125"/><stop stop-opacity="1" stop-color="rgb(54.525757%, 38.63678%, 22.418213%)" offset="0.046875"/><stop stop-opacity="1" stop-color="rgb(54.351807%, 38.290405%, 22.251892%)" offset="0.0625"/><stop stop-opacity="1" stop-color="rgb(54.008484%, 37.908936%, 21.908569%)" offset="0.078125"/><stop stop-opacity="1" stop-color="rgb(53.625488%, 37.657166%, 21.656799%)" offset="0.09375"/><stop stop-opacity="1" stop-color="rgb(53.367615%, 37.504578%, 21.473694%)" offset="0.109375"/><stop stop-opacity="1" stop-color="rgb(53.182983%, 37.239075%, 21.157837%)" offset="0.125"/><stop stop-opacity="1" stop-color="rgb(52.880859%, 36.882019%, 20.883179%)" offset="0.140625"/><stop stop-opacity="1" stop-color="rgb(52.526855%, 36.59668%, 20.706177%)" offset="0.15625"/><stop stop-opacity="1" stop-color="rgb(52.278137%, 36.413574%, 20.419312%)" offset="0.171875"/><stop stop-opacity="1" stop-color="rgb(52.127075%, 36.141968%, 20.11261%)" offset="0.1875"/><stop stop-opacity="1" stop-color="rgb(51.86615%, 35.765076%, 19.937134%)" offset="0.203125"/><stop stop-opacity="1" stop-color="rgb(51.481628%, 35.437012%, 19.680786%)" offset="0.21875"/><stop stop-opacity="1" stop-color="rgb(51.098633%, 35.253906%, 19.297791%)" offset="0.234375"/><stop stop-opacity="1" stop-color="rgb(50.753784%, 35.014343%, 18.954468%)" offset="0.25"/><stop stop-opacity="1" stop-color="rgb(50.572205%, 34.632874%, 18.772888%)" offset="0.265625"/><stop stop-opacity="1" stop-color="rgb(50.360107%, 34.272766%, 18.559265%)" offset="0.28125"/><stop stop-opacity="1" stop-color="rgb(50.074768%, 34.098816%, 18.273926%)" offset="0.289062"/><stop stop-opacity="1" stop-color="rgb(49.876404%, 34.088135%, 18.086243%)" offset="0.296875"/><stop stop-opacity="1" stop-color="rgb(49.59259%, 33.892822%, 17.999268%)" offset="0.3125"/><stop stop-opacity="1" stop-color="rgb(49.401855%, 33.520508%, 17.816162%)" offset="0.328125"/><stop stop-opacity="1" stop-color="rgb(49.317932%, 33.236694%, 17.556763%)" offset="0.335938"/><stop stop-opacity="1" stop-color="rgb(49.139404%, 33.039856%, 17.404175%)" offset="0.34375"/><stop stop-opacity="1" stop-color="rgb(48.852539%, 32.752991%, 17.314148%)" offset="0.359375"/><stop stop-opacity="1" stop-color="rgb(48.568726%, 32.533264%, 17.234802%)" offset="0.367188"/><stop stop-opacity="1" stop-color="rgb(48.373413%, 32.499695%, 17.073059%)" offset="0.375"/><stop stop-opacity="1" stop-color="rgb(48.086548%, 32.38678%, 16.786194%)" offset="0.390625"/><stop stop-opacity="1" stop-color="rgb(47.848511%, 32.099915%, 16.548157%)" offset="0.40625"/><stop stop-opacity="1" stop-color="rgb(47.702026%, 31.732178%, 16.368103%)" offset="0.421875"/><stop stop-opacity="1" stop-color="rgb(47.43042%, 31.468201%, 16.047668%)" offset="0.4375"/><stop stop-opacity="1" stop-color="rgb(47.071838%, 31.292725%, 15.779114%)" offset="0.453125"/><stop stop-opacity="1" stop-color="rgb(46.792603%, 30.993652%, 15.600586%)" offset="0.46875"/><stop stop-opacity="1" stop-color="rgb(46.607971%, 30.610657%, 15.310669%)" offset="0.484375"/><stop stop-opacity="1" stop-color="rgb(46.327209%, 30.308533%, 15.008545%)" offset="0.5"/><stop stop-opacity="1" stop-color="rgb(45.942688%, 30.123901%, 14.823914%)" offset="0.515625"/><stop stop-opacity="1" stop-color="rgb(45.623779%, 29.862976%, 14.562988%)" offset="0.53125"/><stop stop-opacity="1" stop-color="rgb(45.448303%, 29.489136%, 14.237976%)" offset="0.546875"/><stop stop-opacity="1" stop-color="rgb(45.204163%, 29.148865%, 14.053345%)" offset="0.5625"/><stop stop-opacity="1" stop-color="rgb(44.822693%, 28.967285%, 13.822937%)" offset="0.578125"/><stop stop-opacity="1" stop-color="rgb(44.450378%, 28.749084%, 13.467407%)" offset="0.59375"/><stop stop-opacity="1" stop-color="rgb(44.163513%, 28.463745%, 13.299561%)" offset="0.601562"/><stop stop-opacity="1" stop-color="rgb(43.981934%, 28.266907%, 13.284302%)" offset="0.609375"/><stop stop-opacity="1" stop-color="rgb(43.89801%, 27.984619%, 13.082886%)" offset="0.625"/><stop stop-opacity="1" stop-color="rgb(43.797302%, 27.799988%, 12.797546%)" offset="0.632812"/><stop stop-opacity="1" stop-color="rgb(43.598938%, 27.799988%, 12.599182%)" offset="0.640625"/><stop stop-opacity="1" stop-color="rgb(43.315125%, 27.659607%, 12.359619%)" offset="0.65625"/><stop stop-opacity="1" stop-color="rgb(42.94281%, 27.339172%, 12.210083%)" offset="0.671875"/><stop stop-opacity="1" stop-color="rgb(42.727661%, 27.059937%, 12.130737%)" offset="0.679688"/><stop stop-opacity="1" stop-color="rgb(42.698669%, 26.863098%, 11.962891%)" offset="0.6875"/><stop stop-opacity="1" stop-color="rgb(42.582703%, 26.731873%, 11.676025%)" offset="0.703125"/><stop stop-opacity="1" stop-color="rgb(42.29126%, 26.557922%, 11.444092%)" offset="0.71875"/><stop stop-opacity="1" stop-color="rgb(41.921997%, 26.222229%, 11.264038%)" offset="0.734375"/><stop stop-opacity="1" stop-color="rgb(41.662598%, 25.837708%, 10.9375%)" offset="0.75"/><stop stop-opacity="1" stop-color="rgb(41.479492%, 25.57373%, 10.673523%)" offset="0.765625"/><stop stop-opacity="1" stop-color="rgb(41.171265%, 25.389099%, 10.488892%)" offset="0.78125"/><stop stop-opacity="1" stop-color="rgb(40.794373%, 25.093079%, 10.194397%)" offset="0.796875"/><stop stop-opacity="1" stop-color="rgb(40.415955%, 24.716187%, 9.902954%)" offset="0.8125"/><stop stop-opacity="1" stop-color="rgb(40.112305%, 24.412537%, 9.719849%)" offset="0.828125"/><stop stop-opacity="1" stop-color="rgb(39.933777%, 24.234009%, 9.454346%)" offset="0.84375"/><stop stop-opacity="1" stop-color="rgb(39.678955%, 23.979187%, 9.133911%)" offset="0.859375"/><stop stop-opacity="1" stop-color="rgb(39.294434%, 23.594666%, 8.94928%)" offset="0.875"/><stop stop-opacity="1" stop-color="rgb(38.948059%, 23.248291%, 8.711243%)" offset="0.890625"/><stop stop-opacity="1" stop-color="rgb(38.764954%, 23.065186%, 8.360291%)" offset="0.90625"/><stop stop-opacity="1" stop-color="rgb(38.545227%, 22.850037%, 8.178711%)" offset="0.921875"/><stop stop-opacity="1" stop-color="rgb(38.172913%, 22.528076%, 7.974243%)" offset="0.9375"/><stop stop-opacity="1" stop-color="rgb(37.792969%, 22.192383%, 7.644653%)" offset="1"/></linearGradient></defs><g clip-path="url(#9544b34db8)"><g clip-path="url(#1c02bfc04d)"><path fill="#efdeb6" d="M 22.238281 22.238281 L 352.761719 22.238281 L 352.761719 352.761719 L 22.238281 352.761719 Z M 22.238281 22.238281 " fill-opacity="1" fill-rule="nonzero"/></g></g><g clip-path="url(#982b2a4ca9)"><g clip-path="url(#fe6c3a07f0)"><path fill="#7d552e" d="M 31.128906 31.128906 L 343.871094 31.128906 L 343.871094 343.871094 L 31.128906 343.871094 Z M 31.128906 31.128906 " fill-opacity="1" fill-rule="nonzero"/></g></g><g fill="#ffffff" fill-opacity="1"><g transform="translate(78.288534, 173.009176)"><g><path d="M 0.683594 -2.289062 L 5.664062 -18.964844 C 7.730469 -25.878906 6.328125 -31.234375 -0.769531 -33.355469 C -5.769531 -34.847656 -9 -32.554688 -10.652344 -29.234375 L -10.746094 -29.261719 C -10.855469 -32.296875 -12.1875 -35.339844 -16.296875 -36.570312 C -21.996094 -38.269531 -25.792969 -35.4375 -27.875 -28.476562 L -32.714844 -12.265625 Z M -16.703125 -16.640625 L -23.335938 -18.625 L -21.605469 -24.417969 C -20.910156 -26.753906 -19.789062 -28.453125 -17.035156 -27.628906 C -14.277344 -26.804688 -14.277344 -24.769531 -14.972656 -22.433594 Z M -3.671875 -12.75 L -11.566406 -15.105469 L -9.765625 -21.132812 C -8.71875 -24.636719 -7.394531 -26.175781 -4.265625 -25.238281 C -1.132812 -24.304688 -0.824219 -22.277344 -1.871094 -18.773438 Z M -3.671875 -12.75 "/></g></g></g><g fill="#ffffff" fill-opacity="1"><g transform="translate(89.297859, 138.630061)"><g><path d="M 1.367188 -1.960938 L 16.644531 -23.878906 L 10.761719 -27.976562 L 0.503906 -13.257812 L -5.375 -17.355469 L 3.324219 -29.835938 L -2.558594 -33.933594 L -11.253906 -21.453125 L -16.335938 -24.992188 L -6.242188 -39.472656 L -12.121094 -43.570312 L -27.230469 -21.890625 Z M 1.367188 -1.960938 "/></g></g></g><g fill="#ffffff" fill-opacity="1"><g transform="translate(108.958679, 110.899138)"><g><path d="M -0.0390625 0.0273438 L 7.007812 -5.203125 L 4.476562 -12.371094 L 14.066406 -19.492188 L 20.199219 -14.996094 L 27.242188 -20.230469 L -3.636719 -40.71875 L -10.683594 -35.484375 Z M 2.097656 -18.925781 L -2.402344 -31.613281 L -2.324219 -31.671875 L 8.519531 -23.691406 Z M 2.097656 -18.925781 "/></g></g></g><g fill="#ffffff" fill-opacity="1"><g transform="translate(139.28495, 89.29943)"><g><path d="M 16.0625 -4.355469 C 24.371094 -7.03125 27.863281 -12.714844 25.816406 -19.074219 C 23.53125 -26.171875 16.421875 -26.136719 9.605469 -25.835938 C 5.054688 -25.652344 2.757812 -25.628906 2.097656 -27.667969 C 1.5 -29.527344 3.195312 -30.941406 5.699219 -31.75 C 8.902344 -32.78125 11.515625 -31.984375 12.695312 -29.597656 L 21.046875 -32.289062 C 18.648438 -38.941406 11.253906 -41.066406 3.503906 -38.570312 C -3.644531 -36.269531 -8.390625 -31.613281 -6.058594 -24.375 C -4.085938 -18.25 1.71875 -17.40625 7.964844 -17.574219 C 13.097656 -17.691406 16.867188 -18.238281 17.71875 -15.59375 C 18.257812 -13.921875 16.972656 -12.179688 13.867188 -11.175781 C 10.152344 -9.980469 6.671875 -10.292969 5.535156 -13.820312 L -2.816406 -11.128906 C -0.441406 -3.75 7.433594 -1.574219 16.0625 -4.355469 Z M 16.0625 -4.355469 "/></g></g></g><g fill="#ffffff" fill-opacity="1"><g transform="translate(173.976881, 79.859465)"><g><path d="M 2.433594 -0.160156 L 11.191406 -0.726562 L 8.925781 -35.511719 L 0.171875 -34.941406 Z M 2.433594 -0.160156 "/></g></g></g><g fill="#ffffff" fill-opacity="1"><g transform="translate(191.980726, 77.902645)"><g><path d="M 2.34375 0.460938 L 10.957031 2.152344 L 14.949219 -18.179688 L 15.042969 -18.164062 L 23.011719 4.519531 L 31.621094 6.207031 L 38.339844 -27.996094 L 29.726562 -29.6875 L 25.734375 -9.355469 L 25.640625 -9.375 L 17.671875 -32.054688 L 9.058594 -33.746094 Z M 2.34375 0.460938 "/></g></g></g><g fill="#ffffff" fill-opacity="1"><g transform="translate(228.961653, 86.040389)"><g><path d="M 2.074219 1.1875 L 25.261719 14.457031 L 28.820312 8.234375 L 13.25 -0.675781 L 16.808594 -6.894531 L 30.011719 0.660156 L 33.570312 -5.5625 L 20.367188 -13.117188 L 23.445312 -18.488281 L 38.761719 -9.722656 L 42.320312 -15.945312 L 19.386719 -29.070312 Z M 2.074219 1.1875 "/></g></g></g><g fill="#ffffff" fill-opacity="1"><g transform="translate(258.322192, 103.389806)"><g><path d="M 10.597656 12.832031 C 16.464844 19.292969 23.085938 20.128906 28.03125 15.640625 C 33.554688 10.625 30.585938 4.164062 27.496094 -1.917969 C 25.449219 -5.988281 24.480469 -8.070312 26.066406 -9.511719 C 27.511719 -10.824219 29.5 -9.863281 31.269531 -7.914062 C 33.53125 -5.425781 33.886719 -2.714844 32.199219 -0.65625 L 38.097656 5.839844 C 43.167969 0.90625 42.050781 -6.707031 36.578125 -12.734375 C 31.53125 -18.292969 25.328125 -20.695312 19.699219 -15.582031 C 14.933594 -11.257812 16.5625 -5.621094 19.292969 -0.00390625 C 21.519531 4.625 23.574219 7.832031 21.519531 9.699219 C 20.21875 10.878906 18.101562 10.433594 15.90625 8.015625 C 13.28125 5.125 12.128906 1.828125 14.871094 -0.664062 L 8.972656 -7.160156 C 3.234375 -1.949219 4.503906 6.117188 10.597656 12.832031 Z M 10.597656 12.832031 "/></g></g></g><g fill="#ffffff" fill-opacity="1"><g transform="translate(281.42137, 129.638877)"><g><path d="M 6.0625 15.5 C 9.621094 23.46875 15.648438 26.328125 21.75 23.605469 C 28.5625 20.566406 27.757812 13.503906 26.722656 6.757812 C 26.046875 2.253906 25.773438 -0.0273438 27.734375 -0.902344 C 29.515625 -1.695312 31.105469 -0.164062 32.179688 2.242188 C 33.550781 5.3125 33.039062 7.996094 30.796875 9.425781 L 34.371094 17.4375 C 40.726562 14.335938 42.042969 6.753906 38.722656 -0.679688 C 35.664062 -7.535156 30.523438 -11.757812 23.578125 -8.65625 C 17.703125 -6.03125 17.488281 -0.171875 18.332031 6.019531 C 19 11.113281 19.953125 14.796875 17.414062 15.929688 C 15.8125 16.648438 13.941406 15.5625 12.609375 12.578125 C 11.019531 9.015625 10.953125 5.523438 14.335938 4.011719 L 10.761719 -4.003906 C 3.679688 -0.84375 2.367188 7.21875 6.0625 15.5 Z M 6.0625 15.5 "/></g></g></g><g fill="#ffffff" fill-opacity="1"><g transform="translate(294.504531, 163.487785)"><g/></g></g><g clip-path="url(#0954e59469)"><g clip-path="url(#332fb04d73)"><path fill="#efdeb6" d="M 95.835938 95.835938 L 279.164062 95.835938 L 279.164062 279.164062 L 95.835938 279.164062 Z M 95.835938 95.835938 " fill-opacity="1" fill-rule="nonzero"/></g></g><g clip-path="url(#67bda797e4)"><g clip-path="url(#6e0f1f5181)"><path fill="#ffffff" d="M 48.632812 173.464844 L 76.699219 173.464844 L 76.699219 201.535156 L 48.632812 201.535156 Z M 48.632812 173.464844 " fill-opacity="1" fill-rule="nonzero"/></g></g><g clip-path="url(#313c3a1c1d)"><g clip-path="url(#b426d569ab)"><path fill="#ffffff" d="M 298.300781 173.464844 L 326.367188 173.464844 L 326.367188 201.535156 L 298.300781 201.535156 Z M 298.300781 173.464844 " fill-opacity="1" fill-rule="nonzero"/></g></g><g clip-path="url(#17ffbd4764)"><g clip-path="url(#82a63e1b1f)"><g clip-path="url(#d73f00d80a)"><path fill="url(#c26c8b6d6e)" d="M 245.113281 231.753906 L 150.035156 231.753906 L 150.035156 253.023438 L 245.113281 253.023438 Z M 245.113281 231.753906 " fill-rule="nonzero"/></g></g></g><g clip-path="url(#859ca80fc8)"><g clip-path="url(#f5c03f447b)"><g clip-path="url(#7eabd74393)"><path fill="url(#a5e1eac057)" d="M 199.042969 120.875 L 170.195312 120.875 L 170.195312 173.296875 L 199.042969 173.296875 Z M 199.042969 120.875 " fill-rule="nonzero"/></g></g></g><g clip-path="url(#2dbe09dac9)"><g clip-path="url(#d01878273e)"><g clip-path="url(#5b2dff6b79)"><path fill="url(#99d2f5aa8e)" d="M 203.941406 104.902344 L 178.566406 104.902344 L 178.566406 159.578125 L 203.941406 159.578125 Z M 203.941406 104.902344 " fill-rule="nonzero"/></g></g></g><g clip-path="url(#eea7fbf5dc)"><g clip-path="url(#1d8b7624f9)"><g clip-path="url(#95c1b3e1f9)"><path fill="url(#87b1dc2ca4)" d="M 240.082031 177.539062 L 138.613281 177.539062 L 138.613281 239.65625 L 240.082031 239.65625 Z M 240.082031 177.539062 " fill-rule="nonzero"/></g></g></g><path fill="#ffffff" d="M 29.957031 246.246094 C 29.957031 246.546875 29.929688 246.84375 29.871094 247.136719 C 29.8125 247.433594 29.726562 247.71875 29.609375 247.996094 C 29.496094 248.273438 29.355469 248.535156 29.1875 248.785156 C 29.023438 249.035156 28.832031 249.265625 28.621094 249.480469 C 28.40625 249.691406 28.175781 249.878906 27.925781 250.046875 C 27.679688 250.214844 27.414062 250.355469 27.136719 250.46875 C 26.859375 250.585938 26.574219 250.671875 26.28125 250.730469 C 25.984375 250.789062 25.6875 250.816406 25.386719 250.816406 C 25.085938 250.816406 24.789062 250.789062 24.496094 250.730469 C 24.203125 250.671875 23.917969 250.585938 23.640625 250.46875 C 23.363281 250.355469 23.097656 250.214844 22.847656 250.046875 C 22.597656 249.878906 22.367188 249.691406 22.15625 249.480469 C 21.945312 249.265625 21.753906 249.035156 21.585938 248.785156 C 21.421875 248.535156 21.28125 248.273438 21.164062 247.996094 C 21.050781 247.71875 20.964844 247.433594 20.90625 247.136719 C 20.847656 246.84375 20.816406 246.546875 20.816406 246.246094 C 20.816406 245.945312 20.847656 245.648438 20.90625 245.355469 C 20.964844 245.0625 21.050781 244.773438 21.164062 244.496094 C 21.28125 244.21875 21.421875 243.957031 21.585938 243.707031 C 21.753906 243.457031 21.945312 243.226562 22.15625 243.015625 C 22.367188 242.800781 22.597656 242.613281 22.847656 242.445312 C 23.097656 242.28125 23.363281 242.140625 23.640625 242.023438 C 23.917969 241.910156 24.203125 241.824219 24.496094 241.765625 C 24.789062 241.707031 25.085938 241.675781 25.386719 241.675781 C 25.6875 241.675781 25.984375 241.707031 26.28125 241.765625 C 26.574219 241.824219 26.859375 241.910156 27.136719 242.023438 C 27.414062 242.140625 27.679688 242.28125 27.925781 242.445312 C 28.175781 242.613281 28.40625 242.800781 28.621094 243.015625 C 28.832031 243.226562 29.023438 243.457031 29.1875 243.707031 C 29.355469 243.957031 29.496094 244.21875 29.609375 244.496094 C 29.726562 244.773438 29.8125 245.0625 29.871094 245.355469 C 29.929688 245.648438 29.957031 245.945312 29.957031 246.246094 Z M 29.957031 246.246094 " fill-opacity="1" fill-rule="nonzero"/><g fill="#ffffff" fill-opacity="1"><g transform="translate(55.238776, 237.621863)"><g><path d="M 5.683594 12.453125 C 9.105469 19.160156 14.191406 20.332031 19.6875 17.964844 L 18.320312 15.289062 C 13.925781 17.175781 10.25 16.035156 7.824219 11.28125 C 5.15625 6.058594 6.910156 2.109375 12.765625 -0.882812 C 18.617188 -3.871094 22.878906 -2.910156 25.546875 2.316406 C 27.859375 6.847656 26.941406 10.253906 23.074219 12.78125 L 24.421875 15.425781 C 29.359375 12.273438 31.042969 7.722656 27.75 1.269531 C 24.070312 -5.941406 17.660156 -6.835938 11.367188 -3.621094 C 5.007812 -0.375 2.003906 5.246094 5.683594 12.453125 Z M 5.683594 12.453125 "/></g></g></g><g fill="#ffffff" fill-opacity="1"><g transform="translate(71.898805, 268.139536)"><g><path d="M 8.539062 10.65625 C 13.921875 16.796875 20.261719 15.984375 25.574219 11.328125 C 30.8125 6.738281 32.527344 0.488281 27.144531 -5.652344 C 21.765625 -11.789062 15.394531 -10.90625 10.132812 -6.296875 C 4.789062 -1.613281 3.160156 4.515625 8.539062 10.65625 Z M 12.160156 -3.984375 C 17.128906 -8.339844 21.351562 -8.5625 25.3125 -4.042969 C 29.269531 0.476562 28.519531 4.660156 23.550781 9.015625 C 18.578125 13.371094 14.332031 13.566406 10.375 9.046875 C 6.414062 4.53125 7.1875 0.375 12.160156 -3.984375 Z M 12.160156 -3.984375 "/></g></g></g><g fill="#ffffff" fill-opacity="1"><g transform="translate(95.96877, 293.752767)"><g><path d="M 28.375 -5.648438 L 29.753906 -7.574219 L 15.65625 -17.691406 L 1.953125 1.402344 L 4.335938 3.113281 L 10.601562 -5.617188 L 21.453125 2.171875 L 22.8125 0.277344 L 11.960938 -7.511719 L 16.660156 -14.058594 Z M 28.375 -5.648438 "/></g></g></g><g fill="#ffffff" fill-opacity="1"><g transform="translate(120.268076, 310.215724)"><g><path d="M 26.601562 -11.371094 L 27.558594 -13.539062 L 11.675781 -20.539062 L 2.199219 0.96875 L 4.882812 2.152344 L 9.214844 -7.679688 L 21.441406 -2.292969 L 22.382812 -4.425781 L 10.15625 -9.8125 L 13.40625 -17.1875 Z M 26.601562 -11.371094 "/></g></g></g><g fill="#ffffff" fill-opacity="1"><g transform="translate(147.44714, 321.342903)"><g><path d="M 5.707031 -1.226562 L 7.457031 -9.597656 L 20.570312 -6.855469 L 21.046875 -9.140625 L 7.9375 -11.878906 L 9.546875 -19.59375 L 23.699219 -16.636719 L 24.183594 -18.957031 L 7.160156 -22.511719 L 2.351562 0.492188 L 19.476562 4.070312 L 19.960938 1.753906 Z M 5.707031 -1.226562 "/></g></g></g><g fill="#ffffff" fill-opacity="1"><g transform="translate(176.777538, 326.64648)"><g><path d="M 5.324219 -2.390625 L 5.289062 -10.945312 L 18.683594 -11.003906 L 18.671875 -13.339844 L 5.277344 -13.277344 L 5.242188 -21.160156 L 19.695312 -21.222656 L 19.683594 -23.59375 L 2.296875 -23.511719 L 2.402344 -0.0117188 L 19.898438 -0.0898438 L 19.886719 -2.457031 Z M 5.324219 -2.390625 "/></g></g></g><g fill="#ffffff" fill-opacity="1"><g transform="translate(206.020769, 325.395648)"><g/></g></g><g fill="#ffffff" fill-opacity="1"><g transform="translate(221.038023, 322.978953)"><g><path d="M -0.816406 -8.226562 C 0.65625 -3.835938 4.390625 -0.910156 11.628906 -3.332031 C 17.832031 -5.410156 19.625 -8.730469 18.199219 -12.988281 C 17 -16.574219 14.304688 -17.609375 10.136719 -16.921875 L 4.292969 -15.898438 C 1.644531 -15.457031 0.347656 -16.550781 -0.234375 -18.296875 C -1.066406 -20.773438 0.0390625 -23.046875 3.992188 -24.367188 C 8.183594 -25.769531 10.742188 -24.355469 12.054688 -21.441406 L 14.734375 -22.335938 C 13 -26.527344 9.128906 -28.511719 3.296875 -26.558594 C -2.46875 -24.628906 -4.226562 -20.871094 -3.027344 -17.285156 C -1.90625 -13.933594 0.507812 -12.617188 4.585938 -13.351562 L 10.117188 -14.308594 C 13.089844 -14.78125 14.722656 -14.023438 15.507812 -11.675781 C 16.371094 -9.09375 15.492188 -7.050781 10.902344 -5.511719 C 5.738281 -3.785156 3.121094 -5.703125 1.898438 -9.132812 Z M -0.816406 -8.226562 "/></g></g></g><g fill="#ffffff" fill-opacity="1"><g transform="translate(250.229419, 312.351522)"><g><path d="M 4.035156 -29.960938 L 9.324219 -21.261719 L -2.363281 -14.15625 L -7.652344 -22.855469 L -10.15625 -21.332031 L 2.054688 -1.25 L 4.558594 -2.773438 L -1.132812 -12.132812 L 10.554688 -19.238281 L 16.246094 -9.878906 L 18.722656 -11.382812 L 6.511719 -31.464844 Z M 4.035156 -29.960938 "/></g></g></g><g fill="#ffffff" fill-opacity="1"><g transform="translate(277.438301, 294.900012)"><g><path d="M 10.074219 -9.21875 C 15.851562 -14.988281 14.628906 -21.261719 9.632812 -26.261719 C 4.710938 -31.1875 -1.636719 -32.488281 -7.410156 -26.71875 C -13.1875 -20.949219 -11.890625 -14.648438 -6.941406 -9.699219 C -1.921875 -4.675781 4.300781 -3.445312 10.074219 -9.21875 Z M -4.769531 -11.871094 C -9.4375 -16.546875 -9.9375 -20.746094 -5.6875 -24.992188 C -1.4375 -29.238281 2.785156 -28.761719 7.457031 -24.085938 C 12.128906 -19.414062 12.601562 -15.1875 8.351562 -10.941406 C 4.101562 -6.695312 -0.0976562 -7.199219 -4.769531 -11.871094 Z M -4.769531 -11.871094 "/></g></g></g><g fill="#ffffff" fill-opacity="1"><g transform="translate(301.429111, 269.205857)"><g><path d="M -12.984375 -23.613281 L -18.679688 -14.464844 L 1.269531 -2.039062 L 2.839844 -4.558594 L -5.441406 -9.714844 L -1.386719 -16.226562 C 1.359375 -20.636719 -0.226562 -24.039062 -3.40625 -26.019531 C -6.617188 -28.019531 -10.3125 -27.902344 -12.984375 -23.613281 Z M -3.714844 -16.96875 L -7.449219 -10.96875 L -15.101562 -15.730469 L -11.308594 -21.820312 C -9.515625 -24.703125 -7.402344 -24.886719 -5.03125 -23.410156 C -2.753906 -21.988281 -1.863281 -19.9375 -3.714844 -16.96875 Z M -3.714844 -16.96875 "/></g></g></g><g fill="#ffffff" fill-opacity="1"><g transform="translate(315.769637, 244.109956)"><g/></g></g></svg>