<?xml version="1.0" encoding="UTF-8"?>
<svg xmlns="http://www.w3.org/2000/svg" xmlns:xlink="http://www.w3.org/1999/xlink" width="129.75pt" height="25.5pt" viewBox="0 0 129.75 25.5" version="1.1">
<g id="surface11">
<path style=" stroke:none;fill-rule:nonzero;fill:rgb(42.745098%,43.137255%,44.313725%);fill-opacity:1;" d="M 66.460938 9.277344 C 66.371094 9.179688 66.261719 9.125 66.152344 9.089844 C 66.03125 9.050781 65.90625 9.042969 65.796875 9.042969 L 64.792969 9.042969 C 64.785156 9.023438 64.777344 9 64.769531 8.980469 C 64.59375 8.5625 64.222656 8.273438 63.796875 8.273438 C 63.78125 8.273438 63.765625 8.273438 63.75 8.273438 C 63.34375 8.296875 62.996094 8.578125 62.828125 8.980469 C 62.820312 9 62.8125 9.023438 62.804688 9.042969 L 61.652344 9.042969 L 61.652344 9.382812 C 61.652344 9.390625 61.652344 9.394531 61.652344 9.402344 L 61.652344 9.742188 C 61.660156 9.90625 61.679688 10.0625 61.714844 10.214844 C 61.859375 10.8125 62.246094 11.296875 62.808594 11.558594 C 63.085938 11.6875 63.390625 11.757812 63.703125 11.757812 C 63.773438 11.757812 63.84375 11.753906 63.910156 11.746094 C 64.554688 11.683594 65.042969 11.445312 65.367188 11.039062 C 65.476562 10.902344 65.566406 10.75 65.640625 10.582031 C 65.710938 10.59375 65.789062 10.601562 65.867188 10.601562 C 65.996094 10.601562 66.125 10.578125 66.253906 10.515625 C 66.476562 10.402344 66.628906 10.195312 66.671875 9.949219 C 66.703125 9.703125 66.628906 9.457031 66.460938 9.277344 Z M 65.789062 9.382812 C 65.769531 9.382812 65.746094 9.382812 65.722656 9.382812 Z M 63.78125 8.785156 C 63.808594 8.71875 63.84375 8.652344 63.882812 8.589844 C 64.261719 8.644531 64.558594 9.042969 64.558594 9.527344 C 64.558594 9.886719 64.394531 10.199219 64.15625 10.355469 C 64.199219 10.265625 64.222656 10.164062 64.226562 10.0625 C 64.230469 9.78125 64.085938 9.613281 63.945312 9.445312 C 63.925781 9.421875 63.902344 9.394531 63.882812 9.367188 C 63.746094 9.203125 63.707031 8.976562 63.78125 8.785156 Z M 63.496094 8.65625 C 63.496094 8.660156 63.492188 8.667969 63.488281 8.671875 C 63.371094 8.96875 63.429688 9.3125 63.640625 9.570312 C 63.664062 9.597656 63.6875 9.625 63.707031 9.652344 C 63.839844 9.808594 63.917969 9.90625 63.914062 10.0625 C 63.910156 10.261719 63.765625 10.394531 63.664062 10.460938 C 63.300781 10.386719 63.023438 9.996094 63.023438 9.53125 C 63.023438 9.136719 63.21875 8.800781 63.496094 8.65625 Z M 65.089844 10.828125 C 64.824219 11.160156 64.414062 11.355469 63.867188 11.40625 C 63.546875 11.4375 63.230469 11.382812 62.941406 11.25 C 62.335938 10.96875 61.976562 10.371094 61.976562 9.65625 L 61.976562 9.625 C 61.976562 9.539062 61.976562 9.457031 61.984375 9.378906 L 62.71875 9.378906 C 62.714844 9.425781 62.710938 9.476562 62.710938 9.523438 C 62.710938 10.214844 63.195312 10.78125 63.792969 10.78125 C 64.390625 10.78125 64.875 10.21875 64.875 9.523438 C 64.875 9.476562 64.871094 9.425781 64.867188 9.378906 L 65.488281 9.378906 C 65.496094 9.464844 65.492188 9.558594 65.488281 9.65625 C 65.480469 9.832031 65.457031 10 65.414062 10.160156 C 65.347656 10.421875 65.238281 10.644531 65.089844 10.828125 Z M 66.324219 9.890625 C 66.300781 10.03125 66.214844 10.148438 66.085938 10.210938 C 65.984375 10.261719 65.867188 10.269531 65.738281 10.253906 C 65.738281 10.253906 65.738281 10.25 65.738281 10.25 C 65.785156 10.066406 65.816406 9.875 65.824219 9.675781 C 65.828125 9.578125 65.832031 9.480469 65.824219 9.386719 C 66.007812 9.390625 66.132812 9.433594 66.207031 9.515625 C 66.308594 9.613281 66.347656 9.75 66.324219 9.890625 Z M 66.324219 9.890625 "/>
<path style=" stroke:none;fill-rule:nonzero;fill:rgb(42.745098%,43.137255%,44.313725%);fill-opacity:1;" d="M 63.730469 7.269531 C 63.714844 7.363281 63.707031 7.445312 63.726562 7.488281 C 63.75 7.542969 63.789062 7.574219 63.828125 7.625 C 63.980469 7.800781 63.9375 8.117188 63.675781 8.121094 C 63.769531 7.9375 63.691406 7.867188 63.589844 7.730469 C 63.464844 7.574219 63.527344 7.320312 63.730469 7.269531 Z M 63.730469 7.269531 "/>
</g>
</svg>
