<?xml version="1.0" encoding="utf-8"?>
<!-- Generator: Adobe Illustrator 28.2.0, SVG Export Plug-In . SVG Version: 6.00 Build 0)  -->
<svg version="1.1" xmlns="http://www.w3.org/2000/svg" xmlns:xlink="http://www.w3.org/1999/xlink" x="0px" y="0px"
	 viewBox="0 0 389.89 300.75" style="enable-background:new 0 0 389.89 300.75;" xml:space="preserve">
<style type="text/css">
	.st0{fill:none;stroke:#6D6E71;stroke-width:0.25;stroke-miterlimit:10;}
	.st1{fill:#603913;}
	.st2{fill:#6D6E71;stroke:#6D6E71;stroke-width:0.25;stroke-miterlimit:10;}
	.st3{fill:none;stroke:#6D6E71;stroke-width:4;stroke-miterlimit:10;}
	.st4{fill:none;stroke:#6D6E71;stroke-width:6;stroke-miterlimit:10;}
	.st5{fill:#FFFFFF;}
	.st6{fill:none;stroke:#6D6E71;stroke-miterlimit:10;}
	.st7{fill:none;stroke:#6D6E71;stroke-width:3;stroke-miterlimit:10;}
	.st8{fill:none;stroke:#6D6E71;stroke-width:3.6;stroke-miterlimit:10;}
	.st9{fill:none;stroke:#6D6E71;stroke-width:3.8;stroke-miterlimit:10;}
	.st10{fill:#6D6E71;}
	.st11{fill:#6D6F72;}
</style>
<g id="Layer_1">
</g>
<g id="Layer_2">
	<g>
		<path class="st10" d="M205.72,110.65c-0.25,0-0.51,0.01-0.78,0.02v-0.02H205.72z"/>
	</g>
	<g>
		<path class="st10" d="M205.72,110.65c-0.25,0-0.51,0.01-0.78,0.02v-0.02H205.72z"/>
	</g>
	<g>
		<path class="st10" d="M213.64,109.43c-1.05-1.13-2.33-1.81-3.64-2.21c-1.42-0.45-2.9-0.57-4.19-0.57h-11.84
			c-0.09-0.25-0.19-0.5-0.29-0.75c-2.07-4.94-6.44-8.36-11.49-8.36c-0.18,0-0.37,0-0.55,0.02c0-0.01-0.01-0.01-0.02-0.01l-0.02,0.01
			c-4.8,0.26-8.9,3.59-10.89,8.34c-0.1,0.25-0.2,0.5-0.29,0.75h-13.59v4h0.01c0,0.07-0.01,0.14-0.01,0.21v4.02
			c0.07,1.93,0.32,3.79,0.75,5.56c1.71,7.06,6.25,12.77,12.89,15.87c3.29,1.54,6.88,2.33,10.53,2.33c0.82,0,1.64-0.04,2.46-0.12
			c7.58-0.74,13.36-3.55,17.17-8.33c1.28-1.61,2.36-3.42,3.21-5.4c0.85,0.14,1.74,0.24,2.66,0.24c1.5,0,3.06-0.26,4.57-1.03
			c2.61-1.33,4.41-3.76,4.92-6.66C216.49,114.45,215.64,111.56,213.64,109.43z M205.72,110.65c-0.25,0-0.51,0.01-0.78,0.02v-0.02
			H205.72z M182.05,103.6c0.3-0.79,0.72-1.57,1.22-2.29h0.01c4.49,0.65,7.98,5.36,7.98,11.04c0,4.22-1.93,7.91-4.76,9.79
			c0.5-1.08,0.79-2.25,0.81-3.44c0.06-3.3-1.65-5.32-3.31-7.27c-0.24-0.29-0.5-0.59-0.75-0.9
			C181.63,108.54,181.17,105.88,182.05,103.6z M178.68,102.1c-0.02,0.06-0.05,0.12-0.07,0.18c-1.36,3.51-0.67,7.57,1.79,10.58
			c0.26,0.33,0.53,0.64,0.79,0.95c1.58,1.86,2.47,3,2.43,4.82c-0.05,2.35-1.74,3.9-2.95,4.69c-4.28-0.88-7.55-5.46-7.55-10.97
			C173.12,107.75,175.42,103.78,178.68,102.1z M197.5,127.7c-3.11,3.9-7.96,6.2-14.43,6.83c-3.76,0.37-7.53-0.27-10.9-1.84
			c-7.14-3.34-11.4-10.36-11.4-18.78v-0.35c0-1.01,0-1.99,0.08-2.91h8.67c-0.05,0.56-0.08,1.13-0.08,1.7
			c0,8.17,5.72,14.82,12.75,14.82c7.03,0,12.76-6.65,12.76-14.82c0-0.57-0.03-1.14-0.08-1.7h7.32c0.08,1.01,0.05,2.12,0,3.26
			c-0.09,2.07-0.39,4.07-0.88,5.95v0.01C200.51,122.9,199.23,125.52,197.5,127.7z M212.05,116.64c-0.29,1.66-1.31,3.04-2.8,3.8
			c-1.21,0.61-2.58,0.68-4.09,0.5c0.01-0.02,0.01-0.04,0.02-0.06c0.56-2.16,0.9-4.44,1.01-6.79c0.05-1.16,0.08-2.31,0.01-3.43
			c2.17,0.06,3.63,0.55,4.52,1.51C211.85,113.37,212.33,115,212.05,116.64z"/>
	</g>
	<g>
		<path class="st10" d="M181.45,85.73c-0.19,1.1-0.26,2.07-0.04,2.6c0.27,0.66,0.76,1.03,1.21,1.63c1.8,2.06,1.27,5.81-1.79,5.86
			c1.1-2.17,0.17-2.99-1.03-4.61C178.3,89.32,179.04,86.32,181.45,85.73L181.45,85.73z"/>
	</g>
</g>
</svg>
